<?xml version="1.0" encoding="utf-8"?>
<svg width="200px" height="200px" viewBox="0 0 200 200" version="1.1"
     xmlns="http://www.w3.org/2000/svg" xmlns:xlink="http://www.w3.org/1999/xlink">
  <title>Your Logo</title>
  <style type="text/css">
    .st0{fill:#29256A;}
    .st1{fill:#FDB913;}
  </style>

  <!-- Your logo scaled up and perfectly centered to fill the 200×200 square -->
  <g transform="translate(100,100) scale(1.5) translate(-421,-297)">
    <path class="st0" d="M494.82,295.49c2.59-1.3,4.23-3.94,4.23-6.84c0-2.9-1.64-5.55-4.23-6.84c-14.5-7.25-29-14.5-43.5-21.75
      c-14.2,7.1-28.41,14.2-42.61,21.31c8.98,4.49,17.97,8.98,26.95,13.47c6.92-3.46,13.84-6.92,20.76-10.38
      c0.73,0.36,1.46,0.73,2.18,1.09c-21.85,10.93-43.7,21.85-65.55,32.78c9.35,4.67,18.7,9.35,28.04,14.02
      C445.67,320.07,470.25,307.78,494.82,295.49z"/>
    <path class="st1" d="M347.37,281.81c-2.59,1.3-4.23,3.94-4.23,6.84c0,2.9,1.64,5.55,4.23,6.84c14.5,7.25,29,14.5,43.5,21.75
      c14.2-7.1,28.41-14.2,42.61-21.31c-8.98-4.49-17.97-8.98-26.95-13.47c-6.92,3.46-13.84,6.92-20.76,10.38
      c-0.73-0.36-1.46-0.73-2.19-1.09c21.85-10.93,43.7-21.85,65.55-32.78c-9.35-4.67-18.7-9.35-28.04-14.02
      C396.52,257.23,371.95,269.52,347.37,281.81z"/>
    <path class="st0" d="M494.82,312.97c2.59-1.3,4.23-3.94,4.23-6.84c0-3.63,0-7.27,0-10.9c-0.87,1.01-1.94,1.84-3.14,2.44
      c-24.94,12.47-49.88,24.94-74.82,37.41c-9.35-4.67-18.7-9.35-28.04-14.02c0,4.92,0,9.83,0,14.75c9.35,4.67,18.7,9.35,28.04,14.02
      C445.67,337.55,470.25,325.26,494.82,312.97z"/>
    <path class="st1" d="M347.37,312.97c14.5,7.25,29,14.5,43.5,21.75c0-4.92,0-9.83,0-14.75c-14.86-7.43-29.73-14.86-44.59-22.3
      c-1.2-0.6-2.26-1.43-3.14-2.44c0,3.63,0,7.27,0,10.9C343.14,309.03,344.78,311.68,347.37,312.97z"/>
  </g>
</svg>